<svg width="297" height="293" viewBox="0 0 297 293" fill="none" xmlns="http://www.w3.org/2000/svg">
<path d="M104.097 274.131L106.647 274.824C106.598 275.598 106.687 276.314 106.913 276.972C107.132 277.628 107.457 278.217 107.889 278.739C108.313 279.266 108.82 279.714 109.412 280.081C110.004 280.448 110.65 280.726 111.349 280.917C112.623 281.263 113.866 281.255 115.076 280.893C116.279 280.528 117.356 279.802 118.307 278.713C119.252 277.623 119.972 276.167 120.467 274.344C120.963 272.521 121.08 270.9 120.818 269.482C120.549 268.062 119.989 266.89 119.136 265.966C118.276 265.04 117.209 264.404 115.934 264.058C115.235 263.867 114.538 263.781 113.841 263.797C113.145 263.814 112.482 263.939 111.851 264.172C111.212 264.411 110.632 264.757 110.111 265.212C109.581 265.671 109.142 266.244 108.794 266.929L106.245 266.236C106.729 265.212 107.341 264.344 108.079 263.632C108.817 262.92 109.644 262.369 110.56 261.978C111.475 261.593 112.443 261.375 113.466 261.321C114.482 261.267 115.521 261.384 116.583 261.673C118.379 262.161 119.856 263.034 121.016 264.291C122.175 265.549 122.936 267.095 123.298 268.931C123.66 270.766 123.539 272.794 122.935 275.015C122.331 277.235 121.408 279.045 120.166 280.444C118.924 281.844 117.485 282.792 115.848 283.289C114.212 283.786 112.496 283.79 110.7 283.302C109.638 283.013 108.683 282.587 107.834 282.025C106.979 281.461 106.256 280.779 105.664 279.978C105.071 279.183 104.636 278.292 104.36 277.304C104.082 276.324 103.995 275.266 104.097 274.131Z" fill="white"/>
<path d="M78.6339 257.386C79.7174 255.356 81.0203 253.797 82.5426 252.71C84.065 251.623 85.6792 251.019 87.3855 250.899C89.0917 250.779 90.7657 251.157 92.4073 252.034C94.0489 252.91 95.2948 254.09 96.1449 255.574C96.9951 257.058 97.3921 258.736 97.336 260.606C97.2798 262.475 96.71 264.426 95.6265 266.456C94.543 268.486 93.2401 270.044 91.7178 271.132C90.1955 272.219 88.5812 272.823 86.875 272.943C85.1687 273.063 83.4948 272.684 81.8532 271.808C80.2115 270.932 78.9657 269.752 78.1155 268.268C77.2654 266.783 76.8684 265.106 76.9245 263.236C76.9806 261.366 77.5504 259.416 78.6339 257.386ZM80.8896 258.59C80 260.257 79.5281 261.812 79.4738 263.257C79.4132 264.697 79.6988 265.965 80.3305 267.059C80.956 268.149 81.8515 269.006 83.0169 269.628C84.1823 270.25 85.3953 270.519 86.6558 270.435C87.91 270.347 89.1219 269.879 90.2915 269.03C91.4549 268.178 92.4813 266.918 93.3709 265.252C94.2604 263.585 94.7355 262.031 94.7961 260.59C94.8504 259.146 94.5648 257.879 93.9393 256.788C93.3075 255.694 92.4089 254.836 91.2435 254.214C90.0781 253.592 88.8683 253.325 87.6141 253.412C86.3536 253.496 85.1417 253.964 83.9783 254.817C82.8087 255.666 81.7791 256.923 80.8896 258.59Z" fill="white"/>
<path d="M49.2011 247.726L63.5718 231.309L65.4957 232.993L63.1583 253.714L63.3187 253.854L74.6019 240.964L76.5899 242.704L62.2192 259.121L60.2953 257.437L62.6287 236.656L62.4684 236.516L51.157 249.438L49.2011 247.726Z" fill="white"/>
<path d="M41.9771 236.444L40.0906 237.835L30.3808 224.664L32.2674 223.273L36.3384 228.795L52.0139 217.24L53.5816 219.366L37.9061 230.922L41.9771 236.444Z" fill="white"/>
<path d="M22.9007 211.336L42.2533 201.261L43.4733 203.605L24.1208 213.68L22.9007 211.336Z" fill="white"/>
<path d="M11.8314 182.771L32.5928 176.063L33.3789 178.496L20.7332 195.076L20.7987 195.279L37.0997 190.012L37.912 192.526L17.1505 199.234L16.3644 196.801L29.0376 180.167L28.9721 179.965L12.6306 185.245L11.8314 182.771Z" fill="white"/>
<path d="M7.66177 153.939L7.4408 151.306L21.8362 150.098C23.3225 149.973 24.6789 150.212 25.9055 150.815C27.1244 151.411 28.1231 152.314 28.9018 153.525C29.6734 154.736 30.1308 156.194 30.274 157.9C30.4171 159.605 30.2092 161.12 29.6503 162.442C29.0842 163.766 28.2503 164.826 27.1484 165.624C26.0388 166.416 24.7409 166.874 23.2547 166.999L8.85927 168.207L8.6383 165.574L22.8214 164.384C23.883 164.295 24.8082 163.982 25.5971 163.445C26.3789 162.909 26.9706 162.19 27.3723 161.286C27.7664 160.377 27.9126 159.317 27.811 158.106C27.7095 156.896 27.3886 155.875 26.8484 155.044C26.3012 154.213 25.5977 153.602 24.7382 153.211C23.8709 152.814 22.9065 152.659 21.8449 152.749L7.66177 153.939Z" fill="white"/>
<path d="M29.5741 139.206L7.9251 136.494L9.56174 123.428L11.8873 123.72L10.5791 134.164L17.8941 135.08L19.1176 125.312L21.4431 125.604L20.2196 135.371L27.5769 136.293L28.9063 125.68L31.2319 125.971L29.5741 139.206Z" fill="white"/>
<path d="M33.1719 117.235L12.4661 110.357L14.7901 103.361C15.3275 101.743 16.0449 100.507 16.9424 99.6529C17.8331 98.7963 18.8399 98.2776 19.9626 98.0967C21.0854 97.9159 22.2568 98.0281 23.4768 98.4333C24.6967 98.8385 25.6957 99.4473 26.4736 100.259C27.2516 101.072 27.7389 102.083 27.9355 103.293C28.1254 104.501 27.954 105.908 27.4211 107.512L25.5404 113.173L23.2757 112.421L25.1296 106.84C25.4967 105.735 25.6305 104.792 25.5309 104.01C25.4335 103.222 25.1386 102.578 24.6462 102.077C24.1493 101.568 23.4864 101.176 22.6573 100.9C21.8283 100.625 21.0522 100.539 20.3291 100.643C19.6061 100.747 18.9629 101.084 18.3998 101.653C17.8299 102.219 17.3592 103.062 16.9875 104.181L15.5233 108.589L34.0047 114.728L33.1719 117.235ZM27.1079 104.399L38.1019 102.393L37.1347 105.305L26.1676 107.23L27.1079 104.399Z" fill="white"/>
<path d="M57.7307 48.7623L55.9069 50.6739C55.2492 50.2623 54.5774 49.9993 53.8916 49.8848C53.2106 49.7651 52.5376 49.7709 51.8725 49.9021C51.2073 50.0232 50.5723 50.2566 49.9675 50.6024C49.3628 50.9481 48.8104 51.3831 48.3103 51.9072C47.3984 52.863 46.8138 53.9593 46.5565 55.1961C46.3041 56.4277 46.4299 57.7208 46.9339 59.0753C47.4429 60.4247 48.3807 61.7515 49.7476 63.0556C51.1145 64.3598 52.4838 65.2343 53.8556 65.6794C55.2323 66.1192 56.5299 66.1842 57.7484 65.8743C58.9717 65.5592 60.0393 64.9238 60.9512 63.968C61.4513 63.4439 61.8599 62.8716 62.1768 62.2513C62.4938 61.631 62.6997 60.9882 62.7946 60.3229C62.8893 59.6475 62.8609 58.9725 62.7094 58.2979C62.5577 57.6133 62.2634 56.9546 61.8266 56.3218L63.6504 54.4103C64.3199 55.3239 64.7918 56.2748 65.0662 57.263C65.3406 58.2512 65.4317 59.2412 65.3394 60.233C65.242 61.2199 64.9731 62.1756 64.5327 63.1002C64.0971 64.0197 63.4994 64.8777 62.7395 65.6741C61.455 67.0205 59.9837 67.904 58.3258 68.3247C56.6679 68.7454 54.9458 68.6779 53.1595 68.122C51.3732 67.5662 49.6475 66.494 47.9826 64.9055C46.3177 63.317 45.1657 61.6437 44.5266 59.8854C43.8875 58.1271 43.7392 56.4101 44.0816 54.7343C44.4241 53.0584 45.2375 51.5474 46.5221 50.201C47.282 49.4046 48.1109 48.7672 49.009 48.289C49.9119 47.8056 50.8565 47.4946 51.8429 47.3559C52.8241 47.2123 53.8147 47.2543 54.8147 47.482C55.8095 47.7048 56.7816 48.1315 57.7307 48.7623Z" fill="white"/>
<path d="M84.5804 34.3454C85.8496 36.2649 86.5998 38.1529 86.831 40.0094C87.0623 41.8659 86.8243 43.5728 86.1172 45.1302C85.41 46.6876 84.2803 47.9795 82.7281 49.0057C81.1759 50.032 79.5448 50.5655 77.8348 50.6063C76.1248 50.647 74.4611 50.1975 72.8435 49.2576C71.2259 48.3178 69.7825 46.8881 68.5134 44.9686C67.2443 43.0491 66.4941 41.1611 66.2628 39.3046C66.0315 37.4481 66.2695 35.7412 66.9767 34.1838C67.6839 32.6264 68.8136 31.3345 70.3657 30.3083C71.9179 29.282 73.549 28.7485 75.259 28.7077C76.969 28.667 78.6327 29.1165 80.2503 30.0564C81.8679 30.9962 83.3113 32.4259 84.5804 34.3454ZM82.4476 35.7556C81.4057 34.1797 80.2627 33.024 79.0186 32.2884C77.7804 31.549 76.5299 31.1965 75.2671 31.2311C74.0102 31.2618 72.8308 31.6414 71.7289 32.37C70.627 33.0985 69.8128 34.037 69.2864 35.1854C68.766 36.3298 68.6005 37.6185 68.7901 39.0513C68.9855 40.4801 69.6042 41.9825 70.6462 43.5584C71.6881 45.1343 72.8282 46.292 74.0664 47.0315C75.3105 47.767 76.5609 48.1194 77.8178 48.0888C79.0806 48.0542 80.263 47.6726 81.3649 46.944C82.4669 46.2155 83.2781 45.2789 83.7985 44.1345C84.3249 42.9861 84.4904 41.6975 84.2949 40.2686C84.1053 38.8358 83.4896 37.3315 82.4476 35.7556Z" fill="white"/>
<path d="M107.092 13.0648L114.684 33.5194L112.287 34.4091L95.1796 22.4863L94.9798 22.5605L100.941 38.6205L98.4641 39.5399L90.8718 19.0853L93.2688 18.1956L110.431 30.1435L110.631 30.0694L104.655 13.9694L107.092 13.0648Z" fill="white"/>
<path d="M120.452 12.0848L120.127 9.76361L136.333 7.49803L136.658 9.8192L129.863 10.7691L132.559 30.056L129.943 30.4218L127.246 11.1349L120.452 12.0848Z" fill="white"/>
<path d="M151.614 7.2672L151.258 29.0825L148.616 29.0393L148.973 7.22403L151.614 7.2672Z" fill="white"/>
<path d="M182.004 11.1369L178.016 32.5874L175.502 32.12L166.945 13.1046L166.735 13.0657L163.604 29.9077L161.006 29.4247L164.995 7.97419L167.508 8.44159L176.1 27.5067L176.309 27.5456L179.449 10.6617L182.004 11.1369Z" fill="white"/>
<path d="M209.343 21.2005L211.763 22.26L205.97 35.4936C205.372 36.86 204.516 37.9389 203.402 38.7305C202.297 39.5184 201.027 39.9665 199.592 40.0748C198.16 40.1766 196.66 39.8843 195.092 39.1979C193.524 38.5115 192.291 37.6076 191.394 36.4863C190.5 35.3584 189.965 34.1199 189.788 32.771C189.62 31.4183 189.835 30.0589 190.433 28.6925L196.226 15.4589L198.646 16.5183L192.939 29.5568C192.512 30.5328 192.346 31.4953 192.442 32.4445C192.541 33.3872 192.892 34.2503 193.495 35.0336C194.108 35.8133 194.97 36.4467 196.083 36.9337C197.195 37.4207 198.246 37.6247 199.234 37.5456C200.225 37.46 201.097 37.1324 201.85 36.5628C202.613 35.9895 203.208 35.2149 203.635 34.239L209.343 21.2005Z" fill="white"/>
<path d="M211.863 47.4851L224.557 29.7399L235.267 37.401L233.903 39.3072L225.343 33.1833L221.053 39.1792L229.059 44.9065L227.696 46.8127L219.69 41.0854L215.376 47.116L224.075 53.3391L222.711 55.2454L211.863 47.4851Z" fill="white"/>
<path d="M229.469 61.1111L245.377 46.1793L250.423 51.5546C251.589 52.7974 252.334 54.0169 252.658 55.2129C252.987 56.4041 252.964 57.5365 252.588 58.6099C252.213 59.6833 251.556 60.6599 250.619 61.5396C249.682 62.4194 248.671 63.0079 247.586 63.3052C246.501 63.6025 245.38 63.5494 244.222 63.1459C243.069 62.7376 241.915 61.9172 240.758 60.6847L236.675 56.3348L238.415 54.7016L242.439 58.9894C243.237 59.8387 244.002 60.4056 244.737 60.6902C245.477 60.9799 246.183 61.0274 246.858 60.8327C247.542 60.6383 248.203 60.2422 248.84 59.6443C249.477 59.0465 249.922 58.4048 250.175 57.7195C250.428 57.0341 250.438 56.3083 250.206 55.5423C249.979 54.7714 249.462 53.9561 248.655 53.0965L245.477 49.7097L231.277 63.0375L229.469 61.1111ZM243.644 61.8916L240.172 72.5142L238.072 70.2771L241.602 59.7166L243.644 61.8916Z" fill="white"/>
<path d="M277.984 115.315L277.172 112.8C277.847 112.418 278.398 111.953 278.825 111.404C279.255 110.862 279.57 110.268 279.772 109.62C279.982 108.978 280.079 108.308 280.063 107.612C280.047 106.915 279.928 106.223 279.705 105.533C279.299 104.276 278.613 103.24 277.648 102.425C276.685 101.616 275.488 101.111 274.057 100.909C272.628 100.714 271.015 100.907 269.217 101.488C267.42 102.069 265.998 102.857 264.954 103.851C263.911 104.852 263.236 105.962 262.929 107.181C262.623 108.407 262.673 109.648 263.08 110.905C263.302 111.595 263.611 112.226 264.006 112.8C264.4 113.375 264.867 113.862 265.407 114.262C265.956 114.667 266.563 114.963 267.228 115.151C267.903 115.344 268.622 115.399 269.386 115.316L270.199 117.83C269.076 117.984 268.016 117.946 267.016 117.717C266.016 117.487 265.102 117.096 264.274 116.543C263.453 115.987 262.74 115.295 262.137 114.468C261.536 113.647 261.066 112.713 260.728 111.665C260.156 109.895 260.079 108.18 260.499 106.522C260.918 104.864 261.798 103.382 263.137 102.076C264.477 100.769 266.241 99.7626 268.431 99.0551C270.621 98.3476 272.641 98.1315 274.491 98.4068C276.342 98.6821 277.922 99.3694 279.233 100.469C280.543 101.568 281.485 103.003 282.057 104.773C282.395 105.821 282.561 106.853 282.554 107.871C282.549 108.895 282.372 109.874 282.025 110.807C281.684 111.738 281.175 112.589 280.499 113.36C279.829 114.129 278.991 114.78 277.984 115.315Z" fill="white"/>
<path d="M277.875 145.79C275.583 145.991 273.565 145.752 271.823 145.071C270.08 144.391 268.692 143.369 267.66 142.005C266.627 140.642 266.029 139.033 265.866 137.179C265.703 135.326 266.01 133.637 266.789 132.114C267.567 130.591 268.755 129.342 270.352 128.368C271.948 127.393 273.893 126.804 276.185 126.602C278.477 126.401 280.495 126.64 282.237 127.321C283.98 128.001 285.368 129.024 286.4 130.387C287.433 131.751 288.031 133.359 288.194 135.213C288.357 137.066 288.05 138.755 287.271 140.278C286.493 141.801 285.305 143.05 283.709 144.025C282.112 144.999 280.167 145.588 277.875 145.79ZM277.651 143.243C279.533 143.077 281.093 142.622 282.332 141.878C283.572 141.142 284.478 140.21 285.049 139.083C285.62 137.963 285.848 136.746 285.732 135.43C285.616 134.114 285.179 132.951 284.42 131.941C283.661 130.938 282.607 130.179 281.257 129.664C279.907 129.155 278.291 128.984 276.409 129.149C274.527 129.315 272.967 129.766 271.727 130.503C270.487 131.247 269.582 132.178 269.01 133.298C268.44 134.425 268.212 135.647 268.328 136.962C268.444 138.278 268.881 139.438 269.64 140.44C270.399 141.45 271.453 142.209 272.803 142.718C274.153 143.233 275.769 143.408 277.651 143.243Z" fill="white"/>
<path d="M285.868 175.718L264.266 172.654L264.625 170.122L283.256 160.757L283.286 160.546L266.325 158.14L266.696 155.524L288.298 158.589L287.939 161.12L269.26 170.522L269.23 170.733L286.233 173.145L285.868 175.718Z" fill="white"/>
<path d="M280.367 187.933L282.563 188.753L276.837 204.083L274.642 203.263L277.042 196.835L258.799 190.022L259.723 187.547L277.967 194.36L280.367 187.933Z" fill="white"/>
<path d="M269.763 217.63L250.75 206.927L252.046 204.625L271.059 215.327L269.763 217.63Z" fill="white"/>
<path d="M251.888 242.509L234.926 228.787L236.534 226.799L257.33 228.33L257.464 228.164L244.145 217.39L245.807 215.336L262.77 229.058L261.162 231.046L240.306 229.522L240.172 229.688L253.523 240.488L251.888 242.509Z" fill="white"/>
<path d="M230.02 261.756L227.936 263.38L219.058 251.984C218.141 250.808 217.6 249.541 217.435 248.184C217.268 246.838 217.479 245.508 218.067 244.194C218.659 242.886 219.631 241.706 220.981 240.654C222.331 239.602 223.713 238.949 225.126 238.694C226.544 238.445 227.888 238.564 229.158 239.051C230.428 239.548 231.521 240.384 232.437 241.561L241.315 252.957L239.231 254.581L230.484 243.353C229.829 242.512 229.062 241.908 228.181 241.541C227.305 241.179 226.379 241.077 225.403 241.234C224.426 241.401 223.458 241.858 222.5 242.604C221.542 243.35 220.862 244.177 220.461 245.084C220.065 245.996 219.937 246.919 220.08 247.852C220.22 248.796 220.618 249.688 221.273 250.528L230.02 261.756Z" fill="white"/>
<path d="M205.707 251.456L215.266 271.069L203.429 276.838L202.402 274.731L211.864 270.119L208.634 263.492L199.786 267.805L198.759 265.698L207.607 261.386L204.359 254.72L194.744 259.406L193.717 257.299L205.707 251.456Z" fill="white"/>
<path d="M185.341 260.448L190.895 281.547L183.766 283.424C182.118 283.858 180.69 283.933 179.484 283.648C178.28 283.37 177.296 282.81 176.531 281.969C175.766 281.127 175.22 280.085 174.892 278.842C174.565 277.599 174.529 276.429 174.784 275.334C175.039 274.239 175.62 273.278 176.526 272.452C177.434 271.633 178.706 271.008 180.34 270.578L186.11 269.059L186.717 271.367L181.03 272.864C179.904 273.16 179.041 273.564 178.44 274.074C177.834 274.586 177.455 275.185 177.305 275.871C177.15 276.566 177.184 277.335 177.406 278.18C177.629 279.025 177.981 279.722 178.463 280.27C178.945 280.819 179.579 281.174 180.363 281.335C181.149 281.502 182.112 281.436 183.252 281.136L187.744 279.953L182.786 261.121L185.341 260.448ZM177.905 272.541L170.217 264.429L173.184 263.648L180.789 271.781L177.905 272.541Z" fill="white"/>
</svg>
