<svg width="287" height="286" viewBox="0 0 287 286" fill="none" xmlns="http://www.w3.org/2000/svg">
<path d="M132.753 256.702L129.338 278.252L122.057 277.098C120.373 276.831 119.037 276.325 118.048 275.578C117.057 274.839 116.382 273.93 116.02 272.852C115.659 271.773 115.579 270.599 115.78 269.329C115.981 268.06 116.419 266.975 117.094 266.075C117.769 265.175 118.687 264.53 119.85 264.139C121.011 263.755 122.426 263.695 124.095 263.96L129.988 264.893L129.614 267.25L123.806 266.33C122.656 266.148 121.703 266.169 120.948 266.395C120.186 266.619 119.599 267.015 119.185 267.582C118.764 268.156 118.484 268.874 118.348 269.736C118.211 270.599 118.253 271.379 118.473 272.075C118.694 272.772 119.13 273.352 119.783 273.815C120.435 274.285 121.343 274.612 122.508 274.796L127.095 275.523L130.143 256.289L132.753 256.702ZM121.075 264.775L117.306 254.255L120.337 254.735L124.022 265.242L121.075 264.775Z" fill="white"/>
<path d="M109.022 251.857L101.317 272.27L88.9976 267.619L89.8253 265.427L99.6727 269.144L102.276 262.247L93.0666 258.77L93.8943 256.578L103.104 260.054L105.722 253.117L95.7155 249.34L96.5431 247.147L109.022 251.857ZM95.471 272.431L91.2934 276.138L88.5425 275.1L93.3979 271.649L95.471 272.431Z" fill="white"/>
<path d="M69.7062 250.635C69.2364 251.616 69.2259 252.601 69.6746 253.592C70.1232 254.582 70.9055 255.431 72.0215 256.138C72.8374 256.655 73.635 256.975 74.4142 257.099C75.1874 257.219 75.8913 257.156 76.526 256.911C77.1546 256.662 77.6552 256.243 78.0277 255.655C78.3394 255.163 78.4903 254.666 78.4806 254.164C78.4611 253.664 78.3394 253.179 78.1157 252.709C77.8881 252.246 77.6179 251.81 77.3049 251.401C76.9882 250.999 76.6873 250.644 76.4024 250.338L74.8498 248.648C74.4496 248.218 74.0259 247.705 73.5785 247.111C73.1252 246.513 72.7502 245.85 72.4535 245.124C72.147 244.4 72.0049 243.629 72.0272 242.811C72.0495 241.993 72.3343 241.152 72.8817 240.288C73.5126 239.292 74.3437 238.557 75.375 238.084C76.4003 237.607 77.5611 237.447 78.8573 237.604C80.1475 237.757 81.5005 238.282 82.9164 239.179C84.2364 240.016 85.2444 240.953 85.9404 241.991C86.6305 243.025 87.0102 244.098 87.0794 245.209C87.1427 246.317 86.891 247.398 86.3245 248.451L84.0206 246.992C84.4015 246.258 84.5324 245.534 84.4133 244.819C84.2844 244.107 83.9753 243.44 83.486 242.819C82.9868 242.2 82.3713 241.659 81.6393 241.195C80.7874 240.655 79.935 240.309 79.0822 240.155C78.2256 240.008 77.4416 240.058 76.7301 240.305C76.0149 240.558 75.4444 241.02 75.0187 241.692C74.631 242.304 74.4865 242.911 74.5853 243.511C74.684 244.112 74.9363 244.709 75.3422 245.302C75.7482 245.896 76.2181 246.488 76.752 247.078L78.6094 249.163C79.787 250.489 80.5526 251.802 80.906 253.102C81.2594 254.402 81.0427 255.673 80.256 256.915C79.6022 257.947 78.7531 258.671 77.7086 259.085C76.6543 259.502 75.5183 259.623 74.3005 259.448C73.0729 259.276 71.8711 258.817 70.6952 258.072C69.5073 257.32 68.5863 256.438 67.9322 255.426C67.2743 254.421 66.9072 253.381 66.831 252.307C66.7487 251.229 66.9872 250.216 67.5463 249.267L69.7062 250.635Z" fill="white"/>
<path d="M43.0451 234.708L41.185 232.832L51.4437 222.661C52.5029 221.611 53.6961 220.923 55.0234 220.597C56.3406 220.271 57.6863 220.322 59.0605 220.75C60.4296 221.183 61.7168 222.007 62.9219 223.223C64.127 224.438 64.94 225.732 65.361 227.105C65.7769 228.483 65.8188 229.832 65.4867 231.151C65.1445 232.47 64.4438 233.655 63.3847 234.705L53.1259 244.876L51.2657 243L61.3732 232.979C62.1298 232.229 62.6381 231.395 62.8982 230.477C63.1532 229.564 63.1447 228.632 62.8725 227.682C62.5904 226.732 62.0217 225.825 61.1667 224.963C60.3116 224.1 59.4101 223.524 58.4622 223.234C57.5092 222.948 56.5777 222.932 55.6676 223.184C54.7475 223.436 53.9091 223.937 53.1526 224.687L43.0451 234.708Z" fill="white"/>
<path d="M50.4496 209.307L32.0671 221.059L30.6439 218.833L47.0518 208.343L41.5889 199.798L43.5635 198.536L50.4496 209.307Z" fill="white"/>
<path d="M21.956 199.124L19.7703 199.97L13.8637 184.709L16.0494 183.863L18.5259 190.261L36.6874 183.232L37.641 185.696L19.4795 192.725L21.956 199.124Z" fill="white"/>
<path d="M31.7341 167.207L32.1557 169.944L9.3724 165.347L8.95732 162.651L29.302 151.413L29.7236 154.15L12.5634 163.389L12.5893 163.558L31.7341 167.207ZM23.155 167.493L21.4558 156.458L23.7723 156.101L25.4715 167.136L23.155 167.493Z" fill="white"/>
<path d="M9.5985 143.014L7.2595 142.864L8.3015 126.534L10.6405 126.683L10.2036 133.53L29.6385 134.77L29.4703 137.407L10.0354 136.167L9.5985 143.014Z" fill="white"/>
<path d="M19.1618 103.06C18.0883 102.888 17.1406 103.159 16.3189 103.871C15.4972 104.583 14.9063 105.575 14.5463 106.846C14.2831 107.775 14.2032 108.631 14.3064 109.413C14.4116 110.188 14.6722 110.845 15.088 111.384C15.5058 111.916 16.0496 112.276 16.7193 112.466C17.2796 112.625 17.7991 112.628 18.2778 112.476C18.7515 112.314 19.1817 112.06 19.5682 111.712C19.9478 111.361 20.2889 110.978 20.5913 110.562C20.8869 110.144 21.1411 109.754 21.3539 109.394L22.5318 107.424C22.8301 106.918 23.2005 106.366 23.643 105.768C24.0875 105.163 24.6155 104.615 25.227 104.124C25.8336 103.624 26.5323 103.268 27.323 103.057C28.1137 102.845 29.001 102.879 29.9851 103.158C31.1194 103.479 32.0603 104.066 32.8076 104.92C33.5568 105.767 34.0407 106.834 34.2593 108.122C34.4798 109.402 34.3617 110.849 33.905 112.461C33.4792 113.965 32.8679 115.198 32.0712 116.161C31.2763 117.116 30.356 117.786 29.3101 118.169C28.2661 118.545 27.1585 118.611 25.9872 118.368L26.7304 115.744C27.5424 115.9 28.2739 115.82 28.9249 115.502C29.5709 115.176 30.122 114.689 30.578 114.044C31.0292 113.389 31.3728 112.645 31.6089 111.811C31.8837 110.841 31.9733 109.925 31.8777 109.064C31.7752 108.201 31.5042 107.463 31.0648 106.851C30.6185 106.238 30.0127 105.823 29.2473 105.606C28.5503 105.409 27.928 105.443 27.3803 105.708C26.8327 105.974 26.3322 106.386 25.8788 106.944C25.4255 107.502 24.9918 108.121 24.5778 108.801L23.1083 111.175C22.1723 112.682 21.1314 113.789 19.9858 114.498C18.8402 115.207 17.5601 115.361 16.1456 114.961C14.9702 114.628 14.0352 114.02 13.3405 113.137C12.6409 112.245 12.2014 111.19 12.022 109.973C11.8377 108.747 11.9352 107.465 12.3145 106.125C12.6977 104.772 13.2809 103.638 14.0641 102.723C14.8405 101.806 15.7326 101.158 16.7405 100.779C17.7503 100.394 18.7897 100.334 19.8585 100.6L19.1618 103.06Z" fill="white"/>
<path d="M53.2018 72.8136L36.8852 58.3291L41.7794 52.8158C42.911 51.5411 44.0576 50.6881 45.2192 50.2567C46.3756 49.8207 47.5053 49.7409 48.6084 50.0174C49.7116 50.2939 50.7438 50.8588 51.7052 51.7123C52.6665 52.5657 53.3446 53.519 53.7393 54.5721C54.1339 55.6252 54.183 56.7467 53.8866 57.9366C53.5848 59.1217 52.8728 60.3463 51.7506 61.6105L47.79 66.072L46.0054 64.4878L49.9094 60.09C50.6827 59.2189 51.1776 58.4046 51.3941 57.6472C51.6154 56.8844 51.5984 56.176 51.3432 55.5221C51.0874 54.8581 50.6328 54.2362 49.9795 53.6562C49.3262 53.0763 48.6468 52.6916 47.9412 52.5021C47.2357 52.3127 46.512 52.3683 45.7702 52.669C45.0231 52.965 44.2583 53.5538 43.4756 54.4355L40.3919 57.9092L54.9558 70.8377L53.2018 72.8136ZM52.69 58.6266L63.5843 61.1179L61.5474 63.4124L50.7097 60.8574L52.69 58.6266Z" fill="white"/>
<path d="M70.0668 55.4296L57.0189 37.9429L67.5724 30.0683L68.9741 31.9467L60.5381 38.2413L64.9468 44.1499L72.8364 38.2631L74.238 40.1416L66.3485 46.0284L70.7827 51.9711L79.3553 45.5746L80.7569 47.4531L70.0668 55.4296ZM60.0313 32.9304L59.1585 27.414L61.5151 25.6556L61.8073 31.6052L60.0313 32.9304Z" fill="white"/>
<path d="M92.2732 22.963C91.7002 22.0391 90.8756 21.4995 89.7994 21.344C88.7233 21.1885 87.5868 21.3904 86.3901 21.9498C85.515 22.3589 84.8155 22.8583 84.2916 23.4482C83.7741 24.035 83.4478 24.6619 83.3126 25.3288C83.1839 25.9926 83.2669 26.6398 83.5616 27.2703C83.8082 27.7979 84.1457 28.1929 84.5741 28.4552C85.0059 28.7081 85.4799 28.8667 85.9961 28.9312C86.5093 28.9892 87.0223 28.9964 87.535 28.9527C88.0447 28.9026 88.5054 28.8401 88.9173 28.7652L91.1774 28.3673C91.7552 28.2618 92.4151 28.1807 93.1569 28.1241C93.9051 28.0644 94.665 28.1051 95.4366 28.2462C96.2116 28.3778 96.9377 28.6734 97.6151 29.1329C98.2924 29.5925 98.8477 30.2855 99.2808 31.212C99.78 32.28 99.9513 33.376 99.7945 34.4998C99.6442 35.6206 99.1538 36.6848 98.3233 37.6923C97.4993 38.6969 96.3281 39.554 94.8097 40.2638C93.3942 40.9255 92.0617 41.27 90.8123 41.2974C89.5693 41.3218 88.4609 41.0638 87.487 40.5233C86.5195 39.9799 85.7446 39.1858 85.1621 38.1409L87.6328 36.986C88.046 37.7023 88.5856 38.2027 89.2517 38.4872C89.9212 38.7622 90.6494 38.8608 91.4363 38.7831C92.2266 38.6959 93.0142 38.4689 93.7991 38.102C94.7128 37.6749 95.4639 37.1434 96.0526 36.5076C96.6383 35.8654 97.0187 35.178 97.1937 34.4455C97.3657 33.7065 97.2833 32.9767 96.9464 32.2561C96.6397 31.5998 96.2067 31.1515 95.6475 30.9112C95.0882 30.6708 94.4493 30.5618 93.7306 30.5842C93.012 30.6065 92.2601 30.6836 91.475 30.8154L88.7181 31.2573C86.9664 31.5352 85.4477 31.4729 84.1619 31.0704C82.8762 30.6679 81.9221 29.8007 81.2995 28.4689C80.7822 27.3622 80.6303 26.2572 80.8437 25.154C81.0605 24.0413 81.5704 23.0189 82.3735 22.0869C83.1799 21.1455 84.2137 20.38 85.4748 19.7905C86.7487 19.195 87.9879 18.8941 89.1923 18.8878C90.3936 18.875 91.4673 19.1257 92.4133 19.64C93.3657 20.1513 94.0911 20.898 94.5894 21.8803L92.2732 22.963Z" fill="white"/>
<path d="M120.053 9.07939L122.636 8.52278L125.68 22.6446C125.994 24.1026 125.931 25.4784 125.49 26.7721C125.055 28.0574 124.287 29.1637 123.187 30.0911C122.085 31.0116 120.697 31.6521 119.024 32.0127C117.35 32.3733 115.822 32.3612 114.439 31.9764C113.054 31.5847 111.895 30.8936 110.962 29.9031C110.035 28.9041 109.414 27.6757 109.1 26.2177L106.057 12.0959L108.639 11.5392L111.638 25.4528C111.862 26.4942 112.291 27.3717 112.924 28.0853C113.556 28.7919 114.346 29.2865 115.293 29.5691C116.246 29.8433 117.316 29.8525 118.503 29.5966C119.69 29.3408 120.661 28.8917 121.417 28.2494C122.17 27.6002 122.686 26.8243 122.964 25.9217C123.247 25.0106 123.276 24.0343 123.052 22.9929L120.053 9.07939Z" fill="white"/>
<path d="M137.466 29L137.466 7.18182L140.108 7.18182L140.108 26.6562L150.251 26.6562V29L137.466 29Z" fill="white"/>
<path d="M161.394 10.4782L161.859 8.181L177.898 11.4244L177.433 13.7216L170.708 12.3618L166.848 31.4498L164.259 30.9262L168.119 11.8381L161.394 10.4782Z" fill="white"/>
<path d="M183.018 35.9085L180.485 34.7891L196.63 18.0698L199.125 19.172L197.635 42.3667L195.102 41.2473L196.56 21.8126L196.405 21.7437L183.018 35.9085ZM187.398 28.5261L197.61 33.0383L196.663 35.1821L186.451 30.6699L187.398 28.5261Z" fill="white"/>
<path d="M215.325 30.2899L216.71 28.3996L229.908 38.0738L228.522 39.9641L222.989 35.908L211.476 51.6146L209.345 50.0526L220.858 34.346L215.325 30.2899Z" fill="white"/>
<path d="M243.836 59.8683C244.559 59.056 244.841 58.1119 244.684 57.036C244.526 55.96 244.009 54.9281 243.132 53.9402C242.491 53.2178 241.813 52.6895 241.098 52.3552C240.389 52.0262 239.695 51.8919 239.017 51.9522C238.344 52.0178 237.747 52.2816 237.227 52.7437C236.791 53.1303 236.509 53.5663 236.379 54.0516C236.26 54.5376 236.243 55.0371 236.328 55.5503C236.418 56.0588 236.557 56.5526 236.745 57.0316C236.938 57.506 237.13 57.9299 237.319 58.3033L238.344 60.3566C238.609 60.8805 238.875 61.4899 239.14 62.1849C239.411 62.8852 239.588 63.6252 239.672 64.405C239.767 65.1854 239.69 65.9657 239.443 66.7458C239.195 67.526 238.689 68.2555 237.924 68.9345C237.042 69.7172 236.04 70.1934 234.918 70.3631C233.801 70.5381 232.641 70.3711 231.439 69.8618C230.242 69.3579 229.086 68.4793 227.974 67.2258C226.936 66.0573 226.227 64.878 225.845 63.6881C225.467 62.5036 225.399 61.3675 225.64 60.2801C225.885 59.1979 226.426 58.2289 227.262 57.3731L229.072 59.4127C228.503 60.0127 228.177 60.6725 228.094 61.392C228.021 62.1121 228.134 62.8383 228.433 63.5704C228.741 64.3032 229.183 64.9935 229.758 65.6415C230.428 66.3957 231.151 66.9645 231.928 67.3478C232.711 67.7264 233.478 67.8953 234.23 67.8545C234.987 67.809 235.663 67.5222 236.258 66.9941C236.8 66.5132 237.107 65.9705 237.178 65.3659C237.249 64.7614 237.171 64.1179 236.945 63.4353C236.719 62.7528 236.431 62.054 236.082 61.3389L234.873 58.8219C234.108 57.2219 233.735 55.7483 233.755 54.4012C233.775 53.054 234.334 51.8925 235.434 50.9165C236.347 50.1055 237.363 49.6452 238.482 49.5357C239.61 49.4267 240.735 49.6244 241.857 50.1289C242.989 50.6339 244.017 51.4069 244.942 52.448C245.875 53.4996 246.516 54.6018 246.865 55.7545C247.22 56.9026 247.285 58.0032 247.061 59.0564C246.843 60.115 246.333 61.023 245.534 61.7804L243.836 59.8683Z" fill="white"/>
<path d="M250.984 104.84L271.976 98.8946L273.985 105.988C274.45 107.628 274.551 109.053 274.289 110.264C274.033 111.474 273.492 112.468 272.665 113.249C271.838 114.029 270.806 114.595 269.569 114.945C268.332 115.295 267.163 115.353 266.064 115.118C264.964 114.884 263.992 114.321 263.149 113.43C262.314 112.538 261.665 111.278 261.205 109.652L259.579 103.912L261.875 103.261L263.477 108.919C263.795 110.04 264.214 110.896 264.736 111.486C265.259 112.083 265.865 112.451 266.554 112.588C267.251 112.73 268.02 112.682 268.86 112.444C269.701 112.206 270.391 111.841 270.931 111.348C271.47 110.856 271.813 110.216 271.959 109.429C272.112 108.64 272.028 107.679 271.707 106.544L270.441 102.075L251.704 107.382L250.984 104.84ZM263.213 112.05L255.246 119.887L254.409 116.935L262.4 109.18L263.213 112.05Z" fill="white"/>
<path d="M256.546 128.413L278.308 126.839L279.258 139.972L276.92 140.141L276.161 129.643L268.808 130.175L269.518 139.993L267.18 140.162L266.47 130.344L259.075 130.879L259.846 141.547L257.509 141.716L256.546 128.413ZM280.908 132.077L286.026 134.313L286.238 137.246L281.068 134.287L280.908 132.077Z" fill="white"/>
<path d="M271.939 164.611C273.026 164.625 273.925 164.221 274.636 163.398C275.347 162.575 275.789 161.509 275.962 160.2C276.089 159.242 276.045 158.384 275.83 157.624C275.614 156.872 275.262 156.26 274.773 155.787C274.283 155.321 273.693 155.042 273.003 154.951C272.425 154.874 271.911 154.946 271.459 155.165C271.013 155.393 270.624 155.707 270.292 156.107C269.967 156.508 269.684 156.937 269.445 157.392C269.213 157.849 269.017 158.27 268.858 158.658L267.976 160.776C267.754 161.32 267.467 161.92 267.115 162.575C266.762 163.238 266.319 163.856 265.784 164.43C265.256 165.012 264.616 165.465 263.864 165.788C263.112 166.111 262.229 166.206 261.215 166.071C260.046 165.917 259.03 165.471 258.168 164.733C257.305 164.003 256.672 163.017 256.271 161.774C255.868 160.539 255.777 159.09 255.997 157.429C256.202 155.88 256.629 154.571 257.279 153.504C257.928 152.444 258.742 151.649 259.722 151.119C260.701 150.597 261.788 150.372 262.982 150.444L262.624 153.147C261.798 153.11 261.086 153.295 260.487 153.703C259.895 154.119 259.42 154.679 259.061 155.384C258.709 156.097 258.476 156.883 258.362 157.742C258.23 158.742 258.273 159.661 258.492 160.499C258.717 161.339 259.092 162.029 259.615 162.571C260.145 163.114 260.804 163.438 261.592 163.542C262.311 163.637 262.922 163.514 263.425 163.172C263.929 162.831 264.365 162.351 264.733 161.733C265.102 161.116 265.442 160.441 265.753 159.708L266.866 157.148C267.575 155.522 268.446 154.276 269.478 153.41C270.509 152.543 271.754 152.206 273.211 152.399C274.422 152.559 275.435 153.027 276.25 153.801C277.071 154.583 277.657 155.563 278.01 156.742C278.369 157.928 278.457 159.211 278.274 160.592C278.09 161.986 277.676 163.192 277.032 164.21C276.396 165.229 275.607 165.998 274.664 166.519C273.72 167.046 272.7 167.254 271.604 167.145L271.939 164.611Z" fill="white"/>
<path d="M268.673 195.495L267.751 197.971L254.214 192.928C252.816 192.408 251.691 191.613 250.838 190.545C249.989 189.487 249.471 188.244 249.282 186.817C249.1 185.392 249.308 183.878 249.906 182.274C250.503 180.67 251.337 179.389 252.406 178.431C253.482 177.475 254.688 176.871 256.025 176.619C257.367 176.375 258.736 176.514 260.134 177.035L273.671 182.077L272.749 184.553L259.411 179.585C258.413 179.213 257.442 179.102 256.5 179.251C255.564 179.403 254.722 179.801 253.974 180.447C253.23 181.102 252.646 181.999 252.222 183.137C251.798 184.275 251.653 185.335 251.787 186.318C251.928 187.302 252.304 188.155 252.915 188.875C253.53 189.604 254.337 190.155 255.335 190.527L268.673 195.495Z" fill="white"/>
<path d="M242.51 199.436L260.892 211.188L259.469 213.414L243.061 202.924L237.598 211.469L235.624 210.207L242.51 199.436Z" fill="white"/>
<path d="M245.227 229.572L246.912 231.201L235.54 242.967L233.855 241.338L238.622 236.405L224.619 222.871L226.455 220.972L240.459 234.505L245.227 229.572Z" fill="white"/>
<path d="M212.153 234.093L214.461 232.562L219.851 255.171L217.578 256.679L198.838 242.93L201.146 241.398L216.735 253.096L216.877 253.002L212.153 234.093ZM216.014 241.76L206.711 247.934L205.415 245.981L214.718 239.807L216.014 241.76Z" fill="white"/>
<path d="M199.485 264.339L200.331 266.525L185.072 272.433L184.225 270.248L190.623 267.77L183.592 249.61L186.055 248.656L193.087 266.816L199.485 264.339Z" fill="white"/>
<path d="M159.207 272.429C159.502 273.475 160.145 274.222 161.137 274.669C162.128 275.116 163.276 275.236 164.581 275.029C165.535 274.878 166.345 274.591 167.012 274.169C167.671 273.748 168.158 273.236 168.472 272.632C168.78 272.03 168.879 271.385 168.77 270.698C168.679 270.122 168.463 269.65 168.124 269.279C167.779 268.917 167.368 268.633 166.889 268.429C166.412 268.231 165.921 268.082 165.416 267.982C164.913 267.89 164.453 267.822 164.036 267.78L161.754 267.538C161.17 267.48 160.513 267.375 159.785 267.225C159.049 267.075 158.33 266.826 157.627 266.477C156.919 266.136 156.303 265.651 155.779 265.022C155.255 264.394 154.913 263.574 154.753 262.564C154.568 261.4 154.707 260.299 155.168 259.262C155.623 258.227 156.388 257.34 157.465 256.601C158.534 255.863 159.897 255.363 161.552 255.101C163.096 254.856 164.471 254.894 165.68 255.213C166.881 255.533 167.875 256.087 168.661 256.876C169.441 257.666 169.966 258.643 170.237 259.808L167.543 260.235C167.344 259.433 166.964 258.802 166.402 258.345C165.835 257.896 165.163 257.599 164.385 257.457C163.601 257.322 162.782 257.322 161.926 257.458C160.93 257.616 160.061 257.919 159.319 258.367C158.579 258.822 158.023 259.378 157.653 260.033C157.283 260.696 157.16 261.42 157.285 262.206C157.398 262.921 157.691 263.472 158.162 263.858C158.633 264.243 159.216 264.524 159.913 264.702C160.61 264.879 161.354 265.013 162.145 265.103L164.917 265.441C166.677 265.658 168.119 266.137 169.243 266.88C170.368 267.622 171.045 268.719 171.275 270.171C171.466 271.378 171.307 272.482 170.797 273.483C170.281 274.492 169.508 275.334 168.479 276.008C167.443 276.689 166.238 277.139 164.863 277.357C163.474 277.577 162.2 277.524 161.041 277.197C159.883 276.877 158.921 276.339 158.154 275.584C157.38 274.829 156.889 273.911 156.682 272.829L159.207 272.429Z" fill="white"/>
</svg>
