<svg width="240" height="240" viewBox="0 0 240 240" fill="none" xmlns="http://www.w3.org/2000/svg">
<path d="M92.0944 224.606C91.9975 225.689 92.3323 226.616 93.099 227.389C93.8656 228.162 94.895 228.685 96.1872 228.96C97.132 229.161 97.9909 229.183 98.7637 229.028C99.5296 228.871 100.167 228.567 100.675 228.116C101.177 227.664 101.499 227.097 101.642 226.416C101.762 225.846 101.729 225.327 101.544 224.859C101.351 224.397 101.068 223.985 100.694 223.622C100.319 223.267 99.9131 222.952 99.4772 222.678C99.0398 222.41 98.6341 222.183 98.26 221.994L96.2151 220.95C95.69 220.686 95.114 220.353 94.4872 219.951C93.8534 219.548 93.2706 219.058 92.7388 218.48C92.1986 217.908 91.7958 217.234 91.5305 216.459C91.2651 215.684 91.2376 214.796 91.4478 213.795C91.6902 212.641 92.2114 211.663 93.0115 210.86C93.8046 210.055 94.8354 209.501 96.104 209.197C97.3657 208.891 98.8163 208.913 100.456 209.261C101.984 209.585 103.256 210.113 104.271 210.844C105.279 211.574 106.009 212.448 106.463 213.466C106.91 214.483 107.052 215.584 106.89 216.77L104.223 216.203C104.323 215.382 104.192 214.657 103.83 214.029C103.461 213.406 102.938 212.888 102.262 212.476C101.579 212.069 100.813 211.776 99.9653 211.596C98.9788 211.387 98.0594 211.358 97.2072 211.511C96.3535 211.671 95.6368 211.991 95.0571 212.471C94.476 212.957 94.1036 213.589 93.9401 214.368C93.7912 215.077 93.868 215.696 94.1705 216.225C94.4731 216.754 94.9182 217.226 95.5059 217.641C96.0936 218.056 96.7407 218.448 97.4472 218.816L99.9156 220.124C101.482 220.958 102.658 221.923 103.444 223.019C104.23 224.115 104.472 225.383 104.169 226.822C103.918 228.017 103.376 228.991 102.543 229.744C101.702 230.501 100.68 231.011 99.4791 231.271C98.2694 231.537 96.9837 231.525 95.622 231.236C94.2464 230.944 93.0755 230.437 92.1093 229.717C91.1416 229.003 90.4342 228.156 89.9871 227.175C89.533 226.193 89.4017 225.159 89.5933 224.074L92.0944 224.606Z" fill="black"/>
<path d="M80.6109 224.199L79.6382 226.331L64.7789 219.478L65.7516 217.346L71.9817 220.219L80.0642 202.501L82.4633 203.608L74.3808 221.326L80.6109 224.199Z" fill="black"/>
<path d="M68.9938 196.185L71.1836 197.881L51.5812 210.295L49.4251 208.625L56.3603 186.4L58.5501 188.096L52.535 206.668L52.6697 206.772L68.9938 196.185ZM63.0022 202.324L54.1755 195.488L55.6009 193.627L64.4275 200.464L63.0022 202.324Z" fill="black"/>
<path d="M53.7017 183.079L36.8852 196.981L32.2189 191.273C31.1399 189.954 30.4788 188.685 30.2353 187.467C29.9864 186.254 30.0843 185.122 30.5289 184.073C30.9736 183.024 31.6913 182.089 32.6821 181.27C33.6729 180.451 34.7179 179.928 35.8169 179.702C36.9159 179.475 38.0283 179.601 39.1541 180.081C40.2744 180.564 41.3695 181.461 42.4394 182.769L46.2157 187.388L44.3764 188.908L40.6541 184.356C39.9168 183.454 39.192 182.837 38.4797 182.504C37.7629 182.166 37.0625 182.072 36.3784 182.223C35.6845 182.373 35.0008 182.726 34.3275 183.283C33.6542 183.839 33.1691 184.452 32.8723 185.121C32.5755 185.791 32.5172 186.516 32.6976 187.298C32.8724 188.084 33.333 188.933 34.0793 189.846L37.0194 193.442L52.0293 181.034L53.7017 183.079ZM39.6469 181.373L43.8025 170.972L45.7445 173.347L41.535 183.683L39.6469 181.373Z" fill="black"/>
<path d="M24.7948 176.718L22.7034 177.777L15.3805 163.143L17.4718 162.085L20.5421 168.22L37.919 159.428L39.1014 161.791L21.7245 170.583L24.7948 176.718Z" fill="black"/>
<path d="M12.9727 127.492C11.9163 127.749 11.1461 128.365 10.6621 129.339C10.1781 130.314 10.0148 131.457 10.1721 132.769C10.2871 133.728 10.5429 134.548 10.9394 135.23C11.3351 135.904 11.8284 136.41 12.4196 136.746C13.0098 137.075 13.6504 137.197 14.3414 137.114C14.9195 137.043 15.4001 136.846 15.7831 136.52C16.1582 136.188 16.457 135.787 16.6796 135.317C16.895 134.847 17.0622 134.362 17.1809 133.861C17.2926 133.361 17.3772 132.903 17.4348 132.489L17.7631 130.217C17.8435 129.635 17.9727 128.982 18.1507 128.26C18.3278 127.53 18.6039 126.82 18.979 126.131C19.3463 125.435 19.8539 124.837 20.502 124.336C21.1501 123.836 21.9818 123.524 22.9971 123.401C24.1675 123.259 25.2619 123.437 26.2803 123.936C27.2978 124.428 28.1553 125.225 28.8527 126.328C29.5492 127.424 29.9973 128.805 30.197 130.469C30.383 132.02 30.2939 133.394 29.9295 134.59C29.5642 135.779 28.9728 136.752 28.1552 137.509C27.3367 138.26 26.3403 138.749 25.166 138.977L24.8412 136.269C25.6506 136.1 26.2944 135.743 26.7728 135.198C27.2432 134.647 27.5644 133.986 27.7365 133.214C27.9007 132.436 27.9311 131.616 27.828 130.756C27.7078 129.755 27.4378 128.875 27.0179 128.118C26.591 127.361 26.057 126.786 25.4159 126.391C24.7679 125.998 24.049 125.849 23.2593 125.944C22.5401 126.032 21.9791 126.304 21.576 126.76C21.173 127.217 20.8698 127.79 20.6665 128.48C20.4631 129.17 20.3013 129.909 20.1812 130.696L19.7394 133.454C19.456 135.205 18.9222 136.63 18.1381 137.726C17.3541 138.823 16.2323 139.46 14.7728 139.637C13.5601 139.784 12.4632 139.584 11.482 139.038C10.493 138.485 9.68137 137.682 9.04713 136.629C8.40499 135.569 8.00103 134.348 7.83524 132.966C7.66776 131.57 7.76918 130.298 8.13951 129.152C8.50279 128.006 9.07646 127.063 9.86051 126.325C10.6437 125.578 11.5796 125.122 12.6682 124.954L12.9727 127.492Z" fill="black"/>
<path d="M9.62218 116.374L7.29071 116.135L8.94563 99.8551L11.2771 100.095L10.5832 106.92L29.9556 108.911L29.6884 111.54L10.316 109.549L9.62218 116.374Z" fill="black"/>
<path d="M32.2848 96.313L31.3963 98.9365L13.3241 84.281L14.1989 81.6979L37.4104 81.1772L36.5219 83.8007L17.0545 84.0268L16.9998 84.1883L32.2848 96.313ZM24.5496 92.5836L28.1307 82.0087L30.3481 82.7679L26.767 93.3428L24.5496 92.5836Z" fill="black"/>
<path d="M39.6343 77.5082L21.1139 65.9745L24.9803 59.6975C25.8742 58.2462 26.8552 57.2088 27.9231 56.5854C28.9851 55.9583 30.0819 55.6875 31.2136 55.7732C32.3454 55.8588 33.4568 56.2414 34.548 56.921C35.6393 57.6005 36.4691 58.4269 37.0374 59.4C37.6058 60.3731 37.8462 61.4725 37.7587 62.698C37.665 63.9199 37.175 65.2504 36.2885 66.6896L33.1597 71.7692L31.134 70.5077L34.2181 65.5007C34.829 64.5089 35.176 63.6206 35.2591 62.8357C35.3459 62.0447 35.2078 61.3479 34.8449 60.7454C34.4797 60.1331 33.9263 59.596 33.1848 59.1342C32.4432 58.6724 31.7095 58.4079 30.9835 58.3407C30.2575 58.2734 29.5557 58.4513 28.878 58.8744C28.1944 59.2937 27.5434 60.0052 26.9251 61.009L24.4891 64.9639L41.02 75.2587L39.6343 77.5082ZM36.7007 63.5828L47.8363 64.1924L46.2272 66.8047L35.1363 66.1226L36.7007 63.5828Z" fill="black"/>
<path d="M36.2799 47.919L34.6123 46.2721L46.0467 34.5663L47.7143 36.2133L42.9202 41.1211L56.7763 54.8055L54.9301 56.6955L41.074 43.0111L36.2799 47.919Z" fill="black"/>
<path d="M78.8551 20.7335C78.2742 19.8153 77.4459 19.2849 76.3701 19.1424C75.2942 18.9999 74.1617 19.2162 72.9724 19.7913C72.1028 20.2117 71.4093 20.7206 70.8919 21.3178C70.3809 21.912 70.0612 22.5439 69.9327 23.2135C69.8106 23.88 69.8996 24.5272 70.1999 25.1551C70.4512 25.6805 70.7919 26.0719 71.222 26.3294C71.6555 26.5773 72.1302 26.7304 72.6462 26.7886C73.159 26.8404 73.6712 26.8413 74.1826 26.7912C74.6909 26.7348 75.1503 26.6665 75.5607 26.5864L77.8131 26.16C78.3889 26.0472 79.0469 25.9579 79.7869 25.892C80.5332 25.823 81.2922 25.8544 82.0638 25.9862C82.8387 26.1085 83.5665 26.3956 84.2471 26.8475C84.9277 27.2994 85.4886 27.9867 85.9298 28.9094C86.4385 29.973 86.62 31.0686 86.4743 32.1961C86.335 33.3206 85.8557 34.3925 85.0363 35.4119C84.2234 36.4282 83.0624 37.3011 81.5534 38.0307C80.1467 38.7109 78.8199 39.0724 77.5728 39.1152C76.3322 39.155 75.2232 38.9102 74.2458 38.3809C73.2748 37.8485 72.4936 37.0627 71.9021 36.0234L74.3574 34.8362C74.7768 35.5485 75.3203 36.043 75.988 36.3197C76.659 36.587 77.3868 36.6768 78.1716 36.5892C78.9597 36.4922 79.7438 36.2551 80.5238 35.8779C81.4318 35.4389 82.1766 34.8973 82.7581 34.2532C83.3366 33.6027 83.7097 32.9096 83.8774 32.1737C84.042 31.4315 83.9528 30.7015 83.6096 29.9839C83.297 29.3304 82.8605 28.8867 82.2999 28.6528C81.7393 28.419 81.1004 28.3177 80.3832 28.3489C79.666 28.3802 78.9162 28.4666 78.1337 28.6083L75.3858 29.0849C73.6398 29.3848 72.1231 29.3411 70.8357 28.9538C69.5483 28.5665 68.5875 27.7097 67.9532 26.3834C67.4262 25.2814 67.2639 24.1765 67.4663 23.0689C67.6721 21.9517 68.1713 20.9214 68.964 19.978C69.76 19.0251 70.7847 18.2457 72.0379 17.6398C73.3039 17.0276 74.5381 16.7109 75.7403 16.6897C76.9395 16.6621 78.0137 16.9001 78.963 17.4035C79.9187 17.9038 80.65 18.6429 81.1569 19.6205L78.8551 20.7335Z" fill="black"/>
<path d="M88.2049 13.9887L87.6817 11.7041L103.624 8.01288L104.147 10.2975L97.4628 11.8451L101.81 30.8281L99.2362 31.4241L94.8888 12.4411L88.2049 13.9887Z" fill="black"/>
<path d="M114.418 29L111.648 29L119.659 7.18182L122.386 7.18182L130.398 29L127.628 29L121.108 10.6335H120.938L114.418 29ZM115.44 20.4773L126.605 20.4773L126.605 22.821L115.44 22.821L115.44 20.4773Z" fill="black"/>
<path d="M134.506 29.9751L139.377 8.70753L146.559 10.3705C148.219 10.755 149.518 11.3545 150.453 12.1689C151.39 12.9764 152.002 13.931 152.289 15.0326C152.576 16.1342 152.576 17.3116 152.289 18.5646C152.002 19.8177 151.492 20.8696 150.758 21.7202C150.024 22.5709 149.064 23.1506 147.878 23.4593C146.694 23.7611 145.279 23.7214 143.632 23.3401L137.82 21.9943L138.353 19.6682L144.082 20.9947C145.217 21.2574 146.168 21.3028 146.936 21.1307C147.711 20.9602 148.324 20.6064 148.775 20.0692C149.234 19.5268 149.562 18.8298 149.757 17.9783C149.952 17.1267 149.963 16.3456 149.79 15.635C149.618 14.9244 149.222 14.3151 148.603 13.8072C147.985 13.2923 147.101 12.9018 145.953 12.6359L141.427 11.5881L137.08 30.5711L134.506 29.9751ZM146.699 22.738L149.742 33.503L146.753 32.8109L143.793 22.0651L146.699 22.738Z" fill="black"/>
<path d="M161.258 17.3328L162.269 15.2184L177.001 22.3415L175.99 24.4559L169.813 21.4694L161.411 39.0381L159.033 37.888L167.435 20.3193L161.258 17.3328Z" fill="black"/>
<path d="M200.531 49.1061C201.21 48.256 201.444 47.2963 201.233 46.2267C201.022 45.1572 200.456 44.1499 199.532 43.2049C198.858 42.514 198.156 42.0192 197.427 41.7205C196.704 41.427 196.006 41.3275 195.334 41.4222C194.667 41.522 194.086 41.8164 193.59 42.3055C193.176 42.7147 192.917 43.1657 192.812 43.6583C192.717 44.1509 192.725 44.6521 192.836 45.1617C192.952 45.6664 193.115 46.1538 193.326 46.6241C193.543 47.0893 193.754 47.5042 193.961 47.8686L195.085 49.873C195.376 50.3842 195.671 50.9812 195.971 51.6637C196.275 52.3513 196.489 53.0835 196.612 53.8601C196.745 54.6369 196.708 55.4222 196.501 56.216C196.293 57.0098 195.826 57.7661 195.098 58.4847C194.259 59.3132 193.285 59.8408 192.176 60.0675C191.072 60.2993 189.909 60.1907 188.686 59.7416C187.468 59.2975 186.273 58.476 185.102 57.277C184.01 56.1592 183.244 55.0142 182.804 53.8419C182.369 52.6747 182.244 51.5404 182.429 50.4392C182.619 49.343 183.109 48.3453 183.898 47.4459L185.804 49.3968C185.267 50.0266 184.976 50.7038 184.929 51.4286C184.893 52.1534 185.041 52.8749 185.375 53.593C185.72 54.3113 186.194 54.9803 186.8 55.6001C187.505 56.3216 188.254 56.8545 189.047 57.1991C189.845 57.5386 190.618 57.669 191.365 57.5901C192.117 57.5062 192.776 57.1847 193.342 56.6258C193.857 56.1167 194.135 55.5577 194.176 54.9487C194.216 54.3397 194.107 53.6992 193.847 53.027C193.588 52.3549 193.266 51.6696 192.882 50.9712L191.551 48.5117C190.709 46.948 190.264 45.4911 190.216 44.1411C190.168 42.791 190.667 41.5994 191.713 40.5663C192.582 39.7079 193.571 39.1956 194.679 39.0293C195.798 38.8631 196.928 39.0041 198.071 39.4525C199.224 39.901 200.287 40.6232 201.26 41.619C202.242 42.6249 202.936 43.6963 203.342 44.833C203.752 45.9648 203.873 47.0637 203.703 48.1299C203.538 49.2011 203.076 50.1361 202.318 50.9351L200.531 49.1061Z" fill="black"/>
<path d="M209.896 55.8482L211.886 54.6093L220.467 68.5419L218.478 69.7809L214.88 63.9393L198.349 74.2341L196.963 71.9846L213.494 61.6898L209.896 55.8482Z" fill="black"/>
<path d="M204.105 85.653L203.217 83.0295L226.428 83.5501L227.303 86.1333L209.231 100.789L208.342 98.1652L223.627 86.0405L223.573 85.8791L204.105 85.653ZM212.497 83.861L216.078 94.4359L213.86 95.195L210.279 84.6202L212.497 83.861Z" fill="black"/>
<path d="M209.653 105.06L231.357 102.83L232.102 110.164C232.275 111.86 232.127 113.281 231.658 114.429C231.196 115.576 230.49 116.463 229.54 117.089C228.59 117.715 227.476 118.093 226.197 118.225C224.918 118.356 223.758 118.211 222.715 117.79C221.673 117.369 220.814 116.647 220.139 115.624C219.471 114.6 219.052 113.247 218.881 111.566L218.277 105.63L220.651 105.386L221.246 111.237C221.364 112.396 221.628 113.311 222.039 113.983C222.451 114.661 222.984 115.128 223.638 115.382C224.3 115.642 225.065 115.728 225.934 115.639C226.803 115.549 227.546 115.309 228.163 114.917C228.78 114.525 229.229 113.954 229.509 113.204C229.797 112.453 229.881 111.492 229.762 110.319L229.292 105.698L209.92 107.689L209.653 105.06ZM220.441 114.275L211.235 120.619L210.924 117.567L220.14 111.308L220.441 114.275Z" fill="black"/>
<path d="M230.287 126.436L232.614 126.718L230.665 142.965L228.338 142.683L229.155 135.871L209.823 133.526L210.137 130.903L229.47 133.247L230.287 126.436Z" fill="black"/>
<path d="M213.067 174.041C214.087 174.414 215.067 174.328 216.006 173.785C216.945 173.241 217.71 172.379 218.302 171.197C218.734 170.334 218.973 169.507 219.018 168.718C219.06 167.936 218.928 167.24 218.621 166.631C218.311 166.028 217.846 165.57 217.225 165.256C216.705 164.993 216.196 164.891 215.698 164.949C215.204 165.017 214.734 165.186 214.29 165.454C213.852 165.726 213.446 166.038 213.071 166.39C212.703 166.745 212.381 167.079 212.105 167.393L210.581 169.106C210.193 169.546 209.727 170.019 209.181 170.522C208.631 171.033 208.011 171.471 207.319 171.837C206.631 172.213 205.879 172.43 205.064 172.487C204.249 172.545 203.386 172.342 202.473 171.881C201.421 171.348 200.609 170.591 200.036 169.609C199.46 168.633 199.186 167.491 199.213 166.184C199.237 164.882 199.623 163.482 200.374 161.983C201.073 160.586 201.903 159.49 202.865 158.695C203.823 157.906 204.851 157.424 205.949 157.246C207.043 157.076 208.141 157.222 209.244 157.684L208.023 160.123C207.256 159.814 206.524 159.754 205.826 159.943C205.132 160.14 204.5 160.513 203.932 161.062C203.367 161.619 202.891 162.286 202.503 163.061C202.052 163.963 201.792 164.846 201.724 165.711C201.663 166.58 201.791 167.357 202.107 168.042C202.429 168.73 202.946 169.254 203.655 169.613C204.302 169.94 204.918 170.026 205.505 169.869C206.092 169.712 206.66 169.402 207.209 168.94C207.758 168.477 208.299 167.951 208.833 167.362L210.718 165.307C211.918 164.004 213.147 163.113 214.403 162.634C215.659 162.155 216.943 162.248 218.255 162.912C219.345 163.463 220.148 164.239 220.663 165.24C221.182 166.251 221.415 167.372 221.363 168.603C221.314 169.844 220.978 171.087 220.355 172.332C219.725 173.589 218.941 174.593 218.002 175.344C217.069 176.097 216.072 176.564 215.013 176.745C213.951 176.932 212.921 176.792 211.922 176.327L213.067 174.041Z" fill="black"/>
<path d="M209.75 185.162L211.556 186.656L201.199 199.324L199.392 197.831L203.735 192.519L188.725 180.111L190.397 178.066L205.407 190.474L209.75 185.162Z" fill="black"/>
<path d="M179.862 189.325L182.052 187.629L188.987 209.855L186.831 211.525L167.229 199.111L169.419 197.415L185.743 208.002L185.878 207.897L179.862 189.325ZM184.237 196.717L175.41 203.554L173.985 201.693L182.812 194.857L184.237 196.717Z" fill="black"/>
<path d="M163.38 200.913L172.435 220.763L165.741 223.85C164.193 224.564 162.802 224.885 161.567 224.814C160.335 224.748 159.271 224.367 158.375 223.669C157.479 222.972 156.765 222.039 156.231 220.869C155.698 219.699 155.463 218.552 155.528 217.427C155.592 216.303 156 215.254 156.751 214.282C157.505 213.317 158.649 212.48 160.184 211.772L165.602 209.273L166.592 211.445L161.252 213.907C160.194 214.395 159.414 214.943 158.91 215.551C158.4 216.161 158.13 216.818 158.099 217.52C158.065 218.232 158.229 218.985 158.592 219.78C158.954 220.575 159.419 221.201 159.987 221.659C160.555 222.117 161.238 222.357 162.037 222.379C162.839 222.408 163.775 222.176 164.846 221.682L169.063 219.737L160.981 202.019L163.38 200.913ZM158.122 214.131L149.179 207.462L151.965 206.177L160.831 212.882L158.122 214.131Z" fill="black"/>
<path d="M149.867 227.37L150.349 229.663L134.342 233.063L133.86 230.769L140.572 229.344L136.568 210.285L139.152 209.736L143.156 228.795L149.867 227.37Z" fill="black"/>
</svg>
